<svg width="46" height="48" viewBox="0 0 46 48" fill="none" xmlns="http://www.w3.org/2000/svg">
<path d="M3.87268 2C3.87268 0.895431 4.76811 0 5.87268 0H32.4241C33.5287 0 34.4241 0.89543 34.4241 2V10.1121H3.87268V2Z" fill="url(#paint0_linear)"/>
<path d="M0 7C0 5.89543 0.895431 5 2 5H44C45.1046 5 46 5.89543 46 7V38.9851C46 39.8489 45.4455 40.615 44.6251 40.8849L23.6251 47.7943C23.2191 47.9279 22.7809 47.9279 22.3749 47.7943L1.37493 40.8849C0.55447 40.615 0 39.8489 0 38.9851V7Z" fill="url(#paint1_linear)" fill-opacity="0.8"/>
<path d="M2 10C2 8.89543 2.89543 8 4 8H42C43.1046 8 44 8.89543 44 10V37.8504C44 38.7212 43.4366 39.4919 42.6069 39.7561L23.6069 45.8067C23.2121 45.9325 22.7879 45.9325 22.3931 45.8067L3.39312 39.7561C2.56341 39.4919 2 38.7212 2 37.8504V10Z" fill="url(#paint2_linear)"/>
<defs>
<linearGradient id="paint0_linear" x1="14.9529" y1="-1.50605" x2="61.7483" y2="47.6559" gradientUnits="userSpaceOnUse">
<stop stop-color="#A26A37"/>
<stop offset="1" stop-color="#A26A37" stop-opacity="0"/>
</linearGradient>
<linearGradient id="paint1_linear" x1="5.98374" y1="8.68438" x2="38.3015" y2="41.9667" gradientUnits="userSpaceOnUse">
<stop stop-color="#8EB5FA"/>
<stop offset="1" stop-color="#C3C8F1"/>
</linearGradient>
<linearGradient id="paint2_linear" x1="7.46341" y1="11.256" x2="35.9808" y2="41.5989" gradientUnits="userSpaceOnUse">
<stop stop-color="#8EB5FA"/>
<stop offset="1" stop-color="#C3C8F1"/>
</linearGradient>
</defs>
</svg>
